# Blender v2.82 (sub 7) OBJ File: 'wipDirt.blend'
# www.blender.org
mtllib dirtHole.mtl
o Cylinder_Cylinder.001
v -0.009151 0.144059 0.418887
v 0.000000 -0.161564 1.196195
v 0.057483 0.150434 0.401624
v 0.193753 -0.161674 1.180248
v 0.117157 0.162217 0.346914
v 0.365870 -0.169917 1.037439
v 0.185608 0.155182 0.306034
v 0.580072 -0.176931 1.052778
v 0.264126 0.142801 0.270662
v 0.681908 -0.163901 0.925776
v 0.332988 0.133320 0.212340
v 0.842737 -0.185794 0.749035
v 0.381303 0.129532 0.130339
v 1.002653 -0.084018 0.310947
v 0.404772 0.131547 0.046489
v 1.043125 -0.078329 0.019722
v 0.398767 0.141940 -0.029595
v 1.103435 -0.080531 -0.303061
v 0.416795 0.148923 -0.120687
v 1.075554 -0.079946 -0.491606
v 0.418980 0.154880 -0.208476
v 1.013345 -0.080532 -0.546161
v 0.382027 0.166878 -0.274849
v 0.918771 -0.086764 -0.774693
v 0.324731 0.178054 -0.328045
v 0.885378 -0.090051 -0.828984
v 0.270701 0.169615 -0.383503
v 0.799947 -0.084312 -1.001113
v 0.195835 0.161261 -0.411136
v 0.719012 -0.083611 -1.071338
v 0.103911 0.156806 -0.412726
v 0.402462 -0.077333 -1.081033
v 0.016716 0.156771 -0.408734
v -0.000000 -0.090736 -1.140601
v -0.074303 0.160877 -0.409539
v -0.351803 -0.077333 -1.059122
v -0.162667 0.168148 -0.394648
v -0.668354 -0.083611 -1.049426
v -0.245127 0.176365 -0.371662
v -0.846639 -0.084312 -0.979202
v -0.302667 0.185443 -0.324960
v -0.921245 -0.090051 -0.922343
v -0.376894 0.170535 -0.302823
v -0.924199 -0.086764 -0.813329
v -0.423348 0.157361 -0.260156
v -1.018773 -0.080532 -0.791530
v -0.436035 0.149725 -0.193333
v -1.080981 -0.079946 -0.645718
v -0.417383 0.145134 -0.107643
v -1.108862 -0.080531 -0.653122
v -0.422877 0.132673 -0.037711
v -1.108247 -0.078329 -0.330338
v -0.425589 0.123364 0.038924
v -1.161425 -0.084018 -0.039112
v -0.389053 0.122172 0.119967
v -1.121389 -0.133836 0.312554
v -0.330136 0.127629 0.197289
v -1.017409 -0.161729 0.421811
v -0.257090 0.136525 0.276222
v -0.817427 -0.165230 0.791195
v -0.170833 0.142191 0.349539
v -0.527519 -0.158216 1.014458
v -0.083814 0.142984 0.400628
v -0.193751 -0.161674 1.180248
v -0.000083 0.094358 0.617247
v 0.098248 0.097910 0.617753
v 0.215826 0.076798 0.608081
v 0.303421 0.103363 0.523443
v 0.371686 0.104176 0.454413
v 0.454489 0.097119 0.350295
v 0.540690 0.089410 0.185251
v 0.581367 0.087089 0.038765
v 0.615727 0.093584 -0.113962
v 0.599980 0.118714 -0.213927
v 0.576194 0.122546 -0.298055
v 0.511923 0.137717 -0.388465
v 0.467979 0.138706 -0.462894
v 0.379702 0.147442 -0.517409
v 0.300687 0.136296 -0.547337
v 0.167836 0.127989 -0.549379
v 0.006793 0.120708 -0.569979
v -0.138595 0.129296 -0.549214
v -0.302646 0.123438 -0.574357
v -0.387214 0.146940 -0.514208
v -0.452362 0.154788 -0.465465
v -0.512658 0.138990 -0.421073
v -0.591813 0.115991 -0.398006
v -0.597255 0.125044 -0.295229
v -0.624852 0.098920 -0.256136
v -0.607203 0.091899 -0.115005
v -0.604771 0.091029 0.030494
v -0.595191 0.063853 0.186487
v -0.543875 0.054285 0.299845
v -0.421780 0.083019 0.429276
v -0.251828 0.116634 0.525445
v -0.101073 0.098345 0.612180
v -0.005937 0.129517 0.484250
v 0.071298 0.138016 0.468260
v 0.140902 0.166258 0.398592
v 0.231378 0.139422 0.387177
v 0.305523 0.128633 0.336466
v 0.366236 0.123542 0.249742
v 0.429202 0.117275 0.148029
v 0.462621 0.117761 0.043952
v 0.459164 0.130136 -0.052733
v 0.460435 0.142110 -0.142274
v 0.464191 0.146956 -0.235025
v 0.419628 0.162439 -0.305841
v 0.323297 0.197109 -0.327746
v 0.297835 0.167620 -0.418136
v 0.222370 0.154811 -0.449156
v 0.112376 0.149754 -0.443298
v 0.015171 0.146996 -0.456275
v -0.088296 0.153581 -0.444710
v -0.203666 0.156040 -0.448682
v -0.284143 0.171052 -0.412867
v -0.309239 0.202109 -0.328022
v -0.415078 0.165527 -0.335077
v -0.471860 0.147224 -0.298991
v -0.477953 0.143551 -0.221174
v -0.466274 0.136149 -0.141657
v -0.484545 0.120267 -0.062242
v -0.486840 0.110795 0.036575
v -0.451891 0.104491 0.140542
v -0.381864 0.110653 0.226169
v -0.303445 0.122677 0.321535
v -0.202324 0.129238 0.412816
v -0.094691 0.127698 0.471282
vt 1.000000 0.500000
vt 1.000000 1.000000
vt 0.968750 1.000000
vt 0.968750 0.500000
vt 0.937500 1.000000
vt 0.937500 0.500000
vt 0.906250 1.000000
vt 0.906250 0.500000
vt 0.875000 1.000000
vt 0.875000 0.500000
vt 0.843750 1.000000
vt 0.843750 0.500000
vt 0.812500 1.000000
vt 0.812500 0.500000
vt 0.781250 1.000000
vt 0.781250 0.500000
vt 0.750000 1.000000
vt 0.750000 0.500000
vt 0.718750 1.000000
vt 0.718750 0.500000
vt 0.687500 1.000000
vt 0.687500 0.500000
vt 0.656250 1.000000
vt 0.656250 0.500000
vt 0.625000 1.000000
vt 0.625000 0.500000
vt 0.593750 1.000000
vt 0.593750 0.500000
vt 0.562500 1.000000
vt 0.562500 0.500000
vt 0.531250 1.000000
vt 0.531250 0.500000
vt 0.500000 1.000000
vt 0.500000 0.500000
vt 0.468750 1.000000
vt 0.468750 0.500000
vt 0.437500 1.000000
vt 0.437500 0.500000
vt 0.406250 1.000000
vt 0.406250 0.500000
vt 0.375000 1.000000
vt 0.375000 0.500000
vt 0.343750 1.000000
vt 0.343750 0.500000
vt 0.312500 1.000000
vt 0.312500 0.500000
vt 0.281250 1.000000
vt 0.281250 0.500000
vt 0.250000 1.000000
vt 0.250000 0.500000
vt 0.218750 1.000000
vt 0.218750 0.500000
vt 0.187500 1.000000
vt 0.187500 0.500000
vt 0.156250 1.000000
vt 0.156250 0.500000
vt 0.125000 1.000000
vt 0.125000 0.500000
vt 0.093750 1.000000
vt 0.093750 0.500000
vt 0.062500 1.000000
vt 0.062500 0.500000
vt 0.296822 0.485388
vt 0.250000 0.490000
vt 0.203179 0.485389
vt 0.158156 0.471731
vt 0.116663 0.449553
vt 0.080295 0.419706
vt 0.050447 0.383337
vt 0.028269 0.341844
vt 0.014612 0.296822
vt 0.010000 0.250000
vt 0.014611 0.203179
vt 0.028269 0.158156
vt 0.050447 0.116663
vt 0.080294 0.080294
vt 0.116663 0.050447
vt 0.158156 0.028269
vt 0.203178 0.014612
vt 0.250000 0.010000
vt 0.296822 0.014612
vt 0.341844 0.028269
vt 0.383337 0.050447
vt 0.419706 0.080294
vt 0.449553 0.116663
vt 0.471731 0.158156
vt 0.485388 0.203178
vt 0.490000 0.250000
vt 0.485388 0.296822
vt 0.471731 0.341844
vt 0.449553 0.383337
vt 0.419706 0.419706
vt 0.383337 0.449553
vt 0.341844 0.471731
vt 0.031250 1.000000
vt 0.031250 0.500000
vt 0.000000 1.000000
vt 0.000000 0.500000
vt 0.750000 0.419612
vt 0.781818 0.416478
vt 0.812564 0.407151
vt 0.841150 0.391872
vt 0.866482 0.371082
vt 0.887507 0.345463
vt 0.903286 0.315944
vt 0.913073 0.283681
vt 0.916390 0.250000
vt 0.913073 0.216319
vt 0.903286 0.184056
vt 0.887508 0.154537
vt 0.866483 0.128918
vt 0.841150 0.108128
vt 0.812564 0.092849
vt 0.781818 0.083522
vt 0.750000 0.080388
vt 0.718182 0.083522
vt 0.687435 0.092849
vt 0.658850 0.108128
vt 0.633518 0.128918
vt 0.612493 0.154537
vt 0.596714 0.184056
vt 0.586927 0.216319
vt 0.583610 0.250000
vt 0.586927 0.283681
vt 0.596714 0.315944
vt 0.612492 0.345463
vt 0.633518 0.371082
vt 0.658850 0.391872
vt 0.687436 0.407151
vt 0.718182 0.416478
vt 0.789491 0.451720
vt 0.750000 0.455610
vt 0.750000 0.490000
vt 0.796822 0.485388
vt 0.827539 0.440179
vt 0.841844 0.471731
vt 0.862725 0.421371
vt 0.883337 0.449553
vt 0.893702 0.395949
vt 0.919706 0.419706
vt 0.919238 0.364832
vt 0.949553 0.383337
vt 0.938290 0.329190
vt 0.971731 0.341844
vt 0.950056 0.290401
vt 0.985388 0.296822
vt 0.954035 0.250000
vt 0.990000 0.250000
vt 0.950056 0.209599
vt 0.985388 0.203178
vt 0.938290 0.170810
vt 0.971731 0.158156
vt 0.919239 0.135168
vt 0.949553 0.116663
vt 0.893702 0.104051
vt 0.919706 0.080294
vt 0.862725 0.078629
vt 0.883337 0.050447
vt 0.827538 0.059821
vt 0.841844 0.028269
vt 0.789491 0.048280
vt 0.796822 0.014612
vt 0.750000 0.044390
vt 0.750000 0.010000
vt 0.710509 0.048280
vt 0.703178 0.014612
vt 0.672461 0.059821
vt 0.658156 0.028269
vt 0.637275 0.078629
vt 0.616663 0.050447
vt 0.606298 0.104051
vt 0.580294 0.080294
vt 0.580761 0.135168
vt 0.550447 0.116663
vt 0.561710 0.170810
vt 0.528269 0.158156
vt 0.549944 0.209599
vt 0.514611 0.203179
vt 0.545964 0.250000
vt 0.510000 0.250000
vt 0.549944 0.290402
vt 0.514612 0.296822
vt 0.561710 0.329190
vt 0.528269 0.341844
vt 0.580762 0.364833
vt 0.550447 0.383337
vt 0.606298 0.395949
vt 0.580295 0.419706
vt 0.637275 0.421371
vt 0.616663 0.449553
vt 0.672462 0.440179
vt 0.658156 0.471731
vt 0.710509 0.451720
vt 0.703179 0.485389
vn 0.0110 0.9117 0.4108
vn 0.2880 0.8799 0.3779
vn 0.0493 0.8844 0.4642
vn 0.2955 0.9002 0.3200
vn 0.3908 0.8865 0.2476
vn 0.3195 0.9077 0.2719
vn 0.3365 0.9391 0.0696
vn 0.3509 0.9332 0.0783
vn 0.3719 0.9279 0.0265
vn 0.3123 0.9343 -0.1718
vn 0.3543 0.9229 -0.1506
vn 0.3187 0.9248 -0.2080
vn 0.3210 0.9285 -0.1867
vn 0.1332 0.9411 -0.3109
vn 0.0055 0.9287 -0.3707
vn 0.0155 0.9363 -0.3508
vn -0.0317 0.9343 -0.3550
vn -0.0111 0.9242 -0.3817
vn -0.0938 0.9313 -0.3519
vn -0.1998 0.9380 -0.2832
vn -0.4001 0.9120 -0.0906
vn -0.1720 0.9325 -0.3176
vn -0.3151 0.9412 -0.1222
vn -0.4064 0.9119 0.0571
vn -0.3473 0.9374 0.0234
vn -0.3051 0.9521 -0.0212
vn -0.3126 0.9342 0.1722
vn -0.2834 0.8936 0.3481
vn -0.3748 0.9061 0.1962
vn -0.2996 0.8999 0.3168
vn 0.0038 -0.9992 -0.0401
vn -0.1670 0.9020 0.3982
vn -0.0172 0.9124 0.4090
vn -0.0092 0.9992 0.0386
vn -0.0431 0.9641 0.2619
vn 0.0969 0.9446 0.3135
vn 0.1522 0.9480 0.2795
vn 0.1807 0.9744 0.1337
vn 0.1984 0.9762 0.0871
vn 0.2164 0.9738 0.0700
vn 0.2377 0.9693 0.0632
vn 0.2597 0.9600 0.1048
vn 0.2665 0.9495 0.1655
vn 0.1998 0.9795 0.0254
vn 0.2460 0.9691 0.0182
vn 0.2829 0.9574 -0.0576
vn 0.1063 0.9692 -0.2222
vn -0.0571 0.9700 -0.2364
vn -0.0571 0.9717 -0.2290
vn -0.0099 0.9764 -0.2156
vn 0.0290 0.9720 -0.2331
vn 0.0141 0.9685 -0.2485
vn 0.0555 0.9560 -0.2882
vn -0.0045 0.9593 -0.2824
vn -0.2993 0.9541 0.0070
vn -0.2792 0.9598 0.0286
vn -0.1752 0.9837 -0.0405
vn -0.3304 0.9189 0.2154
vn -0.2811 0.9546 0.0983
vn -0.2058 0.9777 0.0415
vn -0.1994 0.9670 0.1587
vn -0.2402 0.9570 0.1629
vn -0.2791 0.9573 0.0754
vn -0.1997 0.9766 0.0795
vn -0.0143 0.9870 0.1602
vn -0.0107 0.9733 0.2292
vn -0.0533 0.9770 0.2064
vn -0.1804 0.9754 0.1263
vn 0.2023 0.9791 -0.0195
vn 0.1952 0.9772 0.0832
vn 0.2008 0.9763 0.0813
vn 0.2131 0.9741 0.0758
vn 0.2273 0.9704 0.0817
vn 0.2338 0.9655 0.1144
vn 0.2268 0.9658 0.1256
vn 0.1975 0.9781 0.0650
vn 0.1995 0.9769 0.0772
vn 0.0368 0.8847 0.4647
vn -0.5044 0.8620 0.0508
vn -0.0728 0.9831 -0.1681
vn -0.0505 0.9747 -0.2176
vn -0.0045 0.9775 -0.2110
vn 0.0421 0.9769 -0.2095
vn 0.0340 0.9720 -0.2324
vn 0.0571 0.9725 -0.2259
vn 0.3196 0.9435 -0.0871
vn -0.1942 0.8315 0.5205
vn -0.2346 0.9688 0.0797
vn -0.2120 0.9760 0.0488
vn -0.2385 0.9644 0.1138
vn -0.2591 0.9556 0.1401
vn -0.2186 0.9709 0.0977
vn -0.2179 0.9681 0.1234
vn -0.2393 0.9634 0.1207
vn -0.2365 0.9675 0.0894
vn -0.1693 0.9782 0.1201
vn -0.0955 0.9797 0.1764
vn -0.0576 0.9758 0.2108
usemtl Material.001
s off
f 65/1/1 2/2/1 4/3/1 66/4/1
f 66/4/2 4/3/2 6/5/2 67/6/2
f 67/6/3 6/5/3 8/7/3 68/8/3
f 68/8/4 8/7/4 10/9/4 69/10/4
f 69/10/5 10/9/5 12/11/5 70/12/5
f 70/12/6 12/11/6 14/13/6 71/14/6
f 71/14/7 14/13/7 16/15/7 72/16/7
f 72/16/8 16/15/8 18/17/8 73/18/8
f 73/18/9 18/17/9 20/19/9 74/20/9
f 74/20/10 20/19/10 22/21/10 75/22/10
f 75/22/11 22/21/11 24/23/11 76/24/11
f 76/24/12 24/23/12 26/25/12 77/26/12
f 77/26/13 26/25/13 28/27/13 78/28/13
f 78/28/14 28/27/14 30/29/14 79/30/14
f 79/30/15 30/29/15 32/31/15 80/32/15
f 80/32/16 32/31/16 34/33/16 81/34/16
f 81/34/17 34/33/17 36/35/17 82/36/17
f 82/36/18 36/35/18 38/37/18 83/38/18
f 83/38/19 38/37/19 40/39/19 84/40/19
f 84/40/20 40/39/20 42/41/20 85/42/20
f 85/42/21 42/41/21 44/43/21 86/44/21
f 86/44/22 44/43/22 46/45/22 87/46/22
f 87/46/23 46/45/23 48/47/23 88/48/23
f 88/48/24 48/47/24 50/49/24 89/50/24
f 89/50/25 50/49/25 52/51/25 90/52/25
f 90/52/26 52/51/26 54/53/26 91/54/26
f 91/54/27 54/53/27 56/55/27 92/56/27
f 92/56/28 56/55/28 58/57/28 93/58/28
f 93/58/29 58/57/29 60/59/29 94/60/29
f 94/60/30 60/59/30 62/61/30 95/62/30
f 4/63/31 2/64/31 64/65/31 62/66/31 60/67/31 58/68/31 56/69/31 54/70/31 52/71/31 50/72/31 48/73/31 46/74/31 44/75/31 42/76/31 40/77/31 38/78/31 36/79/31 34/80/31 32/81/31 30/82/31 28/83/31 26/84/31 24/85/31 22/86/31 20/87/31 18/88/31 16/89/31 14/90/31 12/91/31 10/92/31 8/93/31 6/94/31
f 95/62/32 62/61/32 64/95/32 96/96/32
f 96/96/33 64/95/33 2/97/33 65/98/33
f 1/99/34 3/100/34 5/101/34 7/102/34 9/103/34 11/104/34 13/105/34 15/106/34 17/107/34 19/108/34 21/109/34 23/110/34 25/111/34 27/112/34 29/113/34 31/114/34 33/115/34 35/116/34 37/117/34 39/118/34 41/119/34 43/120/34 45/121/34 47/122/34 49/123/34 51/124/34 53/125/34 55/126/34 57/127/34 59/128/34 61/129/34 63/130/34
f 98/131/35 97/132/35 65/133/35 66/134/35
f 99/135/36 98/131/36 66/134/36 67/136/36
f 100/137/37 99/135/37 67/136/37 68/138/37
f 101/139/38 100/137/38 68/138/38 69/140/38
f 102/141/39 101/139/39 69/140/39 70/142/39
f 103/143/40 102/141/40 70/142/40 71/144/40
f 104/145/41 103/143/41 71/144/41 72/146/41
f 105/147/42 104/145/42 72/146/42 73/148/42
f 106/149/43 105/147/43 73/148/43 74/150/43
f 107/151/44 106/149/44 74/150/44 75/152/44
f 108/153/45 107/151/45 75/152/45 76/154/45
f 109/155/46 108/153/46 76/154/46 77/156/46
f 110/157/47 109/155/47 77/156/47 78/158/47
f 111/159/48 110/157/48 78/158/48 79/160/48
f 112/161/49 111/159/49 79/160/49 80/162/49
f 113/163/50 112/161/50 80/162/50 81/164/50
f 114/165/51 113/163/51 81/164/51 82/166/51
f 115/167/52 114/165/52 82/166/52 83/168/52
f 116/169/53 115/167/53 83/168/53 84/170/53
f 117/171/54 116/169/54 84/170/54 85/172/54
f 118/173/55 117/171/55 85/172/55 86/174/55
f 119/175/56 118/173/56 86/174/56 87/176/56
f 120/177/57 119/175/57 87/176/57 88/178/57
f 121/179/58 120/177/58 88/178/58 89/180/58
f 122/181/59 121/179/59 89/180/59 90/182/59
f 123/183/60 122/181/60 90/182/60 91/184/60
f 124/185/61 123/183/61 91/184/61 92/186/61
f 125/187/62 124/185/62 92/186/62 93/188/62
f 126/189/63 125/187/63 93/188/63 94/190/63
f 127/191/64 126/189/64 94/190/64 95/192/64
f 128/193/65 127/191/65 95/192/65 96/194/65
f 97/132/66 128/193/66 96/194/66 65/133/66
f 3/100/67 1/99/67 97/132/67 98/131/67
f 5/101/68 3/100/68 98/131/68 99/135/68
f 7/102/69 5/101/69 99/135/69 100/137/69
f 9/103/70 7/102/70 100/137/70 101/139/70
f 11/104/71 9/103/71 101/139/71 102/141/71
f 13/105/72 11/104/72 102/141/72 103/143/72
f 15/106/73 13/105/73 103/143/73 104/145/73
f 17/107/74 15/106/74 104/145/74 105/147/74
f 19/108/75 17/107/75 105/147/75 106/149/75
f 21/109/76 19/108/76 106/149/76 107/151/76
f 23/110/77 21/109/77 107/151/77 108/153/77
f 25/111/78 23/110/78 108/153/78 109/155/78
f 27/112/79 25/111/79 109/155/79 110/157/79
f 29/113/80 27/112/80 110/157/80 111/159/80
f 31/114/81 29/113/81 111/159/81 112/161/81
f 33/115/82 31/114/82 112/161/82 113/163/82
f 35/116/83 33/115/83 113/163/83 114/165/83
f 37/117/84 35/116/84 114/165/84 115/167/84
f 39/118/85 37/117/85 115/167/85 116/169/85
f 41/119/86 39/118/86 116/169/86 117/171/86
f 43/120/87 41/119/87 117/171/87 118/173/87
f 45/121/88 43/120/88 118/173/88 119/175/88
f 47/122/89 45/121/89 119/175/89 120/177/89
f 49/123/90 47/122/90 120/177/90 121/179/90
f 51/124/91 49/123/91 121/179/91 122/181/91
f 53/125/92 51/124/92 122/181/92 123/183/92
f 55/126/93 53/125/93 123/183/93 124/185/93
f 57/127/94 55/126/94 124/185/94 125/187/94
f 59/128/95 57/127/95 125/187/95 126/189/95
f 61/129/96 59/128/96 126/189/96 127/191/96
f 63/130/97 61/129/97 127/191/97 128/193/97
f 1/99/98 63/130/98 128/193/98 97/132/98
